<svg width="140" height="140" viewBox="0 0 140 140" fill="none" xmlns="http://www.w3.org/2000/svg">
<rect width="140" height="140" rx="70" fill="url(#paint0_linear_109_121)"/>
<path d="M62.2148 82.5595V97.5158C62.2148 100.586 57.7902 103.592 54.9423 103.885C48.4868 104.551 44.1882 102.379 43.02 95.8173C41.6457 88.1099 42.4245 72.1916 46.4597 65.3222C47.353 63.8003 48.2234 63.0224 49.5366 61.8875C50.5368 61.0232 52.709 59.6741 53.4267 58.8023C53.9688 58.1409 53.694 57.2277 52.9037 56.9271C51.5179 56.4048 49.8573 56.9309 48.1699 56.3259C40.6722 53.6352 39.7636 40.2271 46.7918 37.39C50.3841 35.9432 58.6797 36.1874 62.7569 36.1198C76.2902 35.8906 92.3278 34.6091 96.8363 50.5124C98.4435 56.1793 98.4588 64.7548 96.424 70.3126C91.3619 84.1378 74.4196 82.8865 62.2148 82.5595ZM62.1003 67.4905C62.8103 68.1556 68.6321 67.964 69.9339 67.9715C74.2134 68.0091 78.8021 68.8847 80.8713 64.1723C82.4975 60.4745 81.1728 56.0215 77.2331 54.4732C74.8662 53.5413 67.5021 53.654 64.7267 53.8457C63.8678 53.9058 62.7989 54.0072 62.211 54.6762C60.3404 56.8069 60.6534 63.2441 61.4055 65.8445C61.4971 66.1564 61.917 67.3251 62.0964 67.4942L62.1003 67.4905Z" fill="white"/>
<defs>
<linearGradient id="paint0_linear_109_121" x1="140" y1="70.5527" x2="0.00189325" y2="69.2443" gradientUnits="userSpaceOnUse">
<stop stop-color="#2685BF"/>
<stop offset="1" stop-color="#90007F"/>
</linearGradient>
</defs>
</svg>
